<svg version="1" xmlns="http://www.w3.org/2000/svg" width="333.333" height="333.333" viewBox="0 0 250.000000 250.000000"><path d="M152.5 36C122 50.9 85.1 68.8 81.3 70.6c-2.3 1-4.3 2.6-4.4 3.4-.4 6.5-.3 34 .2 34 .3 0 10.7 4.9 23 10.9s31.8 15.4 43.3 21c11.5 5.6 21.1 9.9 21.4 9.7.3-.4.6-22.7.3-30.9-.1-1.3-7.2-5.3-26.6-14.9-14.6-7.2-26.5-13.4-26.5-13.7 0-.3 12-6.4 26.5-13.6L165 63.6l.1-3.6c.2-8.9 0-29.2-.3-29.5-.1-.2-5.7 2.3-12.3 5.5zM77 48.5c0 9.1.4 16.5.9 16.5s5.8-2.4 11.8-5.4c6-3 13.3-6.4 16.1-7.6 2.9-1.2 5.2-2.6 5.2-3 0-.4-2.6-2-5.7-3.5-3.2-1.6-10.7-5.2-16.7-8.2-5.9-2.9-11-5.3-11.2-5.3-.2 0-.4 7.4-.4 16.5zM77 131.9v17l2.8-1.2c9.1-4.1 31.2-15.1 31.2-15.6 0-.4-6.4-3.8-14.2-7.6-7.9-3.7-15.5-7.4-17-8.2l-2.8-1.4v17zM240.4 163.1c-.5.9-.2 1 .9.6.9-.3 1.9-.1 2.3.5.4.6.3.8-.2.5-.6-.3-1.6-.2-2.3.2-.9.6-1 1.1-.2 1.5.6.4 1.1.2 1.1-.3 0-.6.6-1 1.3-.9.6.2 1.2-.4 1.2-1.2 0-1.9-3.1-2.5-4.1-.9zM7.9 163.2c-.1.5-.1 17.2 0 18.5.1.7.7 1.3 1.5 1.3 1 0 1.3-1.2 1.1-4.3l-.2-4.2 1.9 4.2c1 2.4 2.5 4.3 3.3 4.3 1.2 0 1-.9-.6-4.8-2.1-4.7-1.9-6.7.8-13.8.3-.8-.1-1.4-1-1.4s-1.8 1.3-2.2 3c-.9 4.1-2 4.5-2 .7 0-1.6-.6-3.2-1.2-3.4-.7-.3-1.3-.3-1.4-.1zM24.5 167.2c-.4 2.4-.9 5.2-1.1 6.3-1.3 6.7-1.4 9.5-.5 9.5.6 0 1.6-1 2.2-2.2l1.2-2.2 1.5 2.2c.8 1.2 2 2.2 2.7 2.2 1.2 0 1-1.4-2-16.5-.2-1.1-.4-2.3-.4-2.8-.1-.4-.7-.7-1.5-.7-.9 0-1.7 1.6-2.1 4.2zm2.9 9.7c-1.1 1.1-1.8-1.9-1.4-5.9.2-1.9.4-1.5 1 1.5.4 2.2.6 4.2.4 4.4zM38 173c0 8 .3 10 1.4 10 1.2 0 1.5-2 1.5-10 .1-8.2-.2-10-1.4-10s-1.5 1.8-1.5 10zM47.6 164.5c-.4 1.1.1 1.5 1.9 1.5 3 0 3-.2.6 5.7-1 2.6-2.2 6.3-2.6 8l-.7 3.3h4.1c3 0 4.1-.4 4.1-1.5 0-.9-.9-1.5-2.4-1.5h-2.4l2.4-6.8c3.3-9.2 3.2-10.2-1-10.2-2.1 0-3.6.6-4 1.5zM62 173.1v10l3.5-.3c3.8-.3 4.9-2.1 1.5-2.6-1.5-.3-2-1.1-2-3.3 0-1.6.3-2.8.8-2.8 2 .3 3.2-.3 3.2-1.6 0-1-.7-1.5-1.7-1.3-1.3.2-1.9-.5-2.1-2.5-.3-2.3 0-2.7 2.2-2.7 1.8 0 2.4-.4 2-1.5-.4-.9-1.9-1.5-4-1.5H62v10.1zM76 173c0 8.2.3 10 1.5 10 1.1 0 1.5-1.3 1.5-5.3l.1-5.2 1.7 4.9c2.2 6 4.2 7.1 4.3 2.4.2-8.1 0-16-.4-16.5-1.4-1.3-2.4 1.1-2.2 5.4l.2 4.8-2.3-5.3c-1.3-2.8-2.8-5.2-3.4-5.2-.6 0-1 3.9-1 10zM106.9 165.5c-.5 11.5.1 17.5 1.5 17.5 1.1 0 1.4-1.1 1.2-4.3l-.3-4.2 1.9 4.2c1 2.4 2.5 4.3 3.3 4.3 1.1 0 1-1-.7-4.7-2-4.6-1.9-6.6.9-13.9.3-.8-.1-1.4-1-1.4s-1.8 1.3-2.2 3c-.9 4.2-2.2 4.5-2 .4.2-2.3-.2-3.4-1.1-3.4-.8 0-1.4 1.1-1.5 2.5zM122.5 164c-.5.9-.9 12.9-.6 17.7.1.9 1.7 1.3 4.6 1.3h4.5v-20h-3.9c-2.2 0-4.3.5-4.6 1zm5.6 4c0 1.1.1 3.6.1 5.5 0 6.3-.1 6.7-1.9 6.3-1.5-.3-1.8-1.4-1.8-7.1 0-5.7.3-6.7 1.8-6.7 1 0 1.7.8 1.8 2zM137.9 165.7c-.5 16.6-.4 17.3 1.2 17.3 1.2 0 1.5-1.1 1.5-4.9-.1-5.9.7-5.8 2.4.4.7 2.5 1.9 4.5 2.6 4.5 1.1 0 1.4-2.2 1.4-10.1 0-7.6-.3-10-1.2-9.6-.7.2-1.4 1.9-1.5 3.8-.3 6.3-.4 6.4-2.2 1.5-2-5.7-4.1-7.2-4.2-2.9zM154.7 163.7c-1.9 1.8-.5 6.8 2.8 10.5 2 2.1 3.3 4.3 3 4.8-.9 1.5-3.5 1.2-3.5-.4 0-.8-.7-1.6-1.5-2-1.2-.4-1.5.3-1.5 2.9 0 3.5 0 3.5 4.4 3.5 4.3 0 4.4-.1 4.8-3.5.3-2.9-.1-4-2.9-6.7-3.6-3.5-4.5-7.2-1.5-6.6.9.2 1.7 1 1.7 1.7 0 .8.5 1.6 1.1 1.8 1.1.4 2.5-5.2 1.6-6.2-.8-.7-7.8-.6-8.5.2zM169.7 163.7c-.2.5-.3 4.8-.3 9.8l.2 9h8.9l.3-9.8c.2-8.2 0-9.7-1.3-9.7-1.2 0-1.5 1.5-1.5 8.5 0 7.6-.2 8.5-1.9 8.5-1.6 0-1.8-.9-1.9-6.8 0-9.6-.1-10.2-1.1-10.2-.6 0-1.2.3-1.4.7zM185.9 163.7c-.1.5-.2 5-.3 10l-.2 9.3h3.6c2.6 0 3.7-.4 3.7-1.5 0-.9-.9-1.5-2.2-1.5-2 0-2.2-.5-2.3-7.3 0-3.9-.1-7.8-.1-8.5-.1-1.3-2-1.7-2.2-.5zM198 164.5c0 .8.7 1.5 1.5 1.5 1.2 0 1.5 1.6 1.5 8.5s.3 8.5 1.5 8.5 1.5-1.6 1.5-8.5.3-8.5 1.5-8.5c.8 0 1.5-.6 1.5-1.3 0-.9-1.5-1.4-4.5-1.5-3.4-.2-4.5.1-4.5 1.3zM215.5 164.2c-.4 1.2-3.5 17.5-3.5 18.4 0 .2.6.4 1.4.4.7 0 1.7-1 2-2.3l.6-2.2 2 2.3c1.1 1.3 2.3 2.2 2.8 2 1.3-.5-2.1-19.1-3.5-19.6-.7-.2-1.5.2-1.8 1zm2.3 9.8c.1 1.6-.2 3-.8 3-.5 0-1-1.4-1-3 0-1.7.4-3 .8-3s.9 1.3 1 3zM228.9 163.7c-.1.5-.2 5-.3 10-.1 7 .2 9.3 1.1 9.3 1.4 0 1.6-1.3 1.3-6.8-.2-4.6.6-4 2.5 1.8 1 2.9 2.3 5 3.1 5 1.1 0 1.4-2 1.4-10.1 0-7.6-.3-10-1.2-9.7-.7.3-1.5 2.7-1.8 5.4-.5 4.2-.6 4.5-1.3 2.4-1.8-5.5-3-8-3.8-8-.5 0-1 .3-1 .7zM76.7 187.7c-.2.1-10.7.4-23.5.6-12.7.2-23.5.6-23.8 1-.6.6 176.9.3 192.6-.3 3.3-.1 4-.3 2.5-.9-1.7-.7-147.2-1.1-147.8-.4zM227 188c0 .5.5 1 1.1 1 .5 0 .7-.5.4-1-.3-.6-.8-1-1.1-1-.2 0-.4.4-.4 1zM25.8 189.7c.7.3 1.6.2 1.9-.1.4-.3-.2-.6-1.3-.5-1.1 0-1.4.3-.6.6zM201.1 195.3c-1.7 1.7-1.3 4.5.9 5.7 2.2 1.2 1.7 3.5-.6 2.6-.8-.3-1.4-.1-1.4.5s1 .9 2.3.7c3-.4 3.5-4.3.8-6-2.7-1.6-2.7-3.2-.1-2.5 2.2.6 2.8-.8.6-1.6-.7-.3-1.9 0-2.5.6zM29 200c0 4.8.1 5 2.8 4.9 1.6-.1 2-.3 1-.6-1-.2-1.8-1.4-1.8-2.5 0-1.4.5-1.8 1.5-1.4.8.3 1.5.1 1.5-.4 0-.6-.7-1-1.5-1-2.1 0-1.9-2.8.3-3.3 1-.3.6-.5-1-.6-2.7-.1-2.8.1-2.8 4.9zM35.4 199.9c0 2.8.4 4.8.8 4.5.4-.3.6-1.6.4-3-.6-3.2.2-3 3.5.8l2.8 3.3-.1-5.5c-.1-3.4-.3-4.3-.5-2.2l-.4 3.2-2.6-3c-1.3-1.6-2.8-3-3.2-3-.3 0-.7 2.2-.7 4.9zM46.2 196.2c-.7.7-1.2 2.4-1.2 3.8 0 3.4 1.7 5 5.2 5 2.3 0 2.8-.4 2.8-2.6 0-1.4-.4-2.3-1-1.9-.5.3-1 1.3-1 2.1 0 .9-.7 1.4-1.7 1.2-1.3-.2-1.8-1.3-1.8-3.8 0-3.1.4-3.6 3-4.1l3-.7-3-.1c-1.7 0-3.6.4-4.3 1.1zM55 200c0 2.7.5 5 1 5 .6 0 1-2.3 1-5 0-2.8-.4-5-1-5-.5 0-1 2.2-1 5zM59.9 195c-.6 1.6-.4 9.8.2 9.4.4-.2.6-1.6.3-2.9-.6-3.3.4-3.1 3.7.7l2.8 3.3-.1-5.5c-.1-3.7-.3-4.4-.5-2.1l-.4 3.4-2.9-3.4c-1.6-1.9-3-3.2-3.1-2.9zM69 200c0 4.7.2 5 2.5 5 1.4 0 2.5-.4 2.5-1 0-.5-.7-.7-1.5-.4-1 .4-1.5 0-1.5-1.4 0-1.1.8-2.3 1.8-2.5 1.6-.4 1.6-.5 0-.6-1 0-1.8-.7-1.8-1.5s.8-1.7 1.8-1.9c1-.3.6-.5-1-.6-2.7-.1-2.8.1-2.8 4.9zM75.4 199.7c.1 4.6.2 4.8 3.1 5 1.7.1 2.3-.1 1.3-.3-2.2-.7-3.1-3.3-1.3-4 1.2-.5 1.2-.8-.1-2.2-1.5-1.5-1.5-1.6.2-2.3 1.6-.6 1.5-.8-.7-.8-2.4-.1-2.6.2-2.5 4.6zM81.7 195.7c-.2.5-.2 1.4-.1 2 .1.7.2 2.7.3 4.4 0 1.8.5 2.8 1.1 2.4.6-.4.8-1.1.5-1.6-1.1-1.7.8-.9 2.1.8.7 1 1.6 1.5 2 1.1.4-.4.1-1.4-.5-2.2-.8-1-.9-2.1-.3-3.3.5-1 .7-2.4.5-3.1-.5-1.3-4.9-1.7-5.6-.5zm3.7 1.8c.3.9 0 1.5-.8 1.5-.7 0-1.3-.7-1.3-1.5s.4-1.5.8-1.5.9.7 1.3 1.5zM89.6 199.7c.1 6.4 2.1 6.8 2.1.3 0-3-.4-5-1.1-5-.7 0-1.1 1.9-1 4.7zM94.1 200.2c.1 4.6.2 4.9.8 1.9l.6-3.5 2.8 3.3c1.5 1.8 2.7 3.1 2.8 2.9.5-2 .4-4.6-.2-4.2-.4.2-1.8-.9-3-2.6-1.3-1.6-2.6-3-3.1-3-.4 0-.7 2.4-.7 5.2zM104 197.1c-1.7 3-.4 6.8 2.5 7.5 3.2.8 5.4-.1 5.1-2-.4-2.5-1.6-3.1-1.6-.8 0 3-2.8 2.8-4.2-.3-.9-2.1-.8-2.8.7-4.5 1.6-1.8 1.6-2 .2-2-.9 0-2.1.9-2.7 2.1zM109.8 195.7c.7.3 1.6.2 1.9-.1.4-.3-.2-.6-1.3-.5-1.1 0-1.4.3-.6.6zM120 195.2c0 .2-.7 2.5-1.5 5.3-1.2 3.9-1.2 4.6-.1 3.2 1.7-2.2 3.2-2.2 4.5 0 .5 1 1.2 1.5 1.5 1.2.8-.8-2.6-9.9-3.6-9.9-.4 0-.8.1-.8.2zm1.4 4.3c.3.9 0 1.5-.9 1.5s-1.2-.6-.9-1.5c.4-.8.7-1.5.9-1.5.2 0 .5.7.9 1.5zM126.4 199.9c.1 4.7 1 6.2 1.2 2 .1-1 .2-2.2.3-2.6 0-.4 1.4.8 3.1 2.7l2.9 3.5-.1-5.5c0-4.5-.2-4.9-.7-2.2l-.6 3.4-2.3-3.1c-1.2-1.7-2.6-3.1-3-3.1-.5 0-.8 2.2-.8 4.9zM136 200c0 4.5.2 5 2.3 5 3.2-.1 5.7-2.3 5.7-5.2 0-3.2-1.8-4.8-5.2-4.8-2.7 0-2.8.2-2.8 5zm5.6-2.5c.9 2.3-.5 6.5-2.1 6.5-1.1 0-1.5-1.1-1.5-4s.4-4 1.5-4c.9 0 1.8.7 2.1 1.5zM150.7 195.7c-1.4 1.3-.6 4.3 1.3 5.3 2.2 1.2 1.7 3.5-.6 2.6-.8-.3-1.4-.1-1.4.5 0 1.8 4.5.5 4.8-1.4.2-1.1-.6-2.9-1.8-4.2l-2.2-2.3 2.4-.5c2-.4 2.1-.4.2-.6-1.1 0-2.4.2-2.7.6zM156.6 195.8c-.3.5-.3 2.4-.1 4.2.6 4.7 4 6.6 6.4 3.6 1.3-1.6 1.8-7.2.8-8.3-.4-.3-.7 1.2-.7 3.5 0 2.2-.5 4.4-1 4.7-1.9 1.2-3.6-1.4-3.5-5 .2-3.3-.7-4.6-1.9-2.7zM166.4 199.5c.1 2.5.6 4.5 1.1 4.4.6 0 .9-.7.9-1.4-.1-.8.7-1.7 1.8-2.1 2.9-.9 2-4.8-1.3-5.2-2.5-.3-2.6-.1-2.5 4.3zm3.6-1.3c0 1.8-.2 2-.9.8-.6-.8-.7-1.8-.5-2.2.9-1.4 1.4-.9 1.4 1.4zM173.6 199.2c.1 2.4.2 4.6.3 5 .2 1.2 4.1.9 4.1-.2 0-.6-.5-.9-1.1-.8-.6.2-1.3-.5-1.4-1.5-.2-1 .3-1.7 1.3-1.7 1.4-.1 1.4-.2-.2-1.2-1.9-1.1-1.9-1.1-.1-2.4 1.8-1.3 1.7-1.4-.6-1.4s-2.5.3-2.3 4.2zM179.9 196.5c-.5 5.3 0 8.7 1.1 8 .6-.4.8-1.1.5-1.6-.4-.5-.1-.9.4-.9.6 0 1.1.7 1.1 1.5s.4 1.5.9 1.5c1.4 0 2.3-1.8 1.2-2.4-.5-.4-.7-2.2-.4-4.1.5-3.3.4-3.5-2.1-3.5-1.6 0-2.6.6-2.7 1.5zm3.3 1c0 .5-.5 1.1-1 1.3-.5.1-.9-.4-.9-1.3s.4-1.4.9-1.3c.5.2 1 .8 1 1.3zM187.1 196.2c0 .7.9 3.1 1.9 5.3 1.6 3.5 1.9 3.8 2.5 2 .5-1.1 1.4-3.5 2.1-5.3.7-1.7.9-3.2.5-3.2s-1.3 1.5-1.8 3.2l-1 3.3-1.3-3.3c-1.2-3.1-3.1-4.4-2.9-2zM196 200.1c0 3.2.4 4.9 1.1 4.7.6-.2 1-.7 1-1.1-.1-.4-.1-2.5-.1-4.7s-.4-4-1-4c-.5 0-1 2.3-1 5.1zM206.5 199.3c.1 5.9 1.9 6.3 2.2.4.1-3-.2-4.7-1-4.7-.7 0-1.2 1.6-1.2 4.3zM211.2 200.2c.1 4.5.2 4.7.5 1.4l.4-3.8 2.2 3c2.3 3 4.2 4 4.2 2.1 0-1.2-5.9-7.9-6.9-7.9-.3 0-.5 2.4-.4 5.2zM221 196.9c-1.4 2.7-1.3 4.7.6 6.5 2 2.1 6 2.1 6.8 0 .8-2.2.8-2.4-.9-2.4-.9 0-1.2.6-.9 1.5.8 2-1.9 2-3.6 0-1.3-1.5-.5-5.5 1.4-6.7.7-.5.5-.8-.6-.8-1 0-2.2.9-2.8 1.9zM226.5 196c.4.6 1.1.8 1.6.5 1.4-.9 1.1-1.5-.7-1.5-.8 0-1.2.5-.9 1zM100.5 198c-.3.5-.1 1 .4 1 .6 0 1.1-.5 1.1-1 0-.6-.2-1-.4-1-.3 0-.8.4-1.1 1z"/></svg>